# Blender v2.63 (sub 0) OBJ File: 'HotkeySpread.blend'
# www.blender.org
mtllib HotkeySpread.mtl
o HotkeySpread_Torus.004
v 1.391948 0.126269 -1.391948
v -1.391948 0.126269 -1.391948
v -1.391948 0.126269 1.391947
v 1.391948 0.126269 1.391947
v -0.681218 0.098137 0.187766
v -0.901949 0.098137 0.116045
v -0.901949 0.098137 -0.116045
v -0.681218 0.098137 -0.187766
v -0.544795 0.098137 -0.000000
v -0.742225 0.157989 -0.000000
v -0.614464 0.098137 -0.348923
v -0.719830 0.098137 -0.555718
v -0.555718 0.098137 -0.719830
v -0.348923 0.098137 -0.614464
v -0.385228 0.098137 -0.385228
v -0.524833 0.157989 -0.524833
v -0.187766 0.098137 -0.681218
v -0.116045 0.098137 -0.901949
v 0.116045 0.098137 -0.901949
v 0.187766 0.098137 -0.681218
v 0.000000 0.098137 -0.544795
v 0.000000 0.157989 -0.742225
v 0.681218 0.098137 0.187766
v 0.901949 0.098137 0.116045
v 0.901949 0.098137 -0.116045
v 0.681218 0.098137 -0.187766
v 0.544795 0.098137 -0.000000
v 0.742225 0.157989 -0.000000
v 0.614464 0.098137 -0.348923
v 0.719830 0.098137 -0.555718
v 0.555718 0.098137 -0.719830
v 0.348923 0.098137 -0.614464
v 0.385228 0.098137 -0.385228
v 0.524833 0.157989 -0.524833
v -0.822778 0.000932 0.087563
v -0.635068 0.000932 -0.057509
v -0.118515 0.001294 -0.696353
v 0.118515 0.001294 -0.696353
v -0.401491 0.001215 -0.547471
v -0.625541 0.001215 -0.469014
v 0.822778 0.000932 0.087563
v 0.635068 0.000932 -0.057509
v 0.401491 0.001215 -0.547471
v 0.625541 0.001215 -0.469013
v 1.391948 -0.126269 -1.391948
v 0.000000 0.000000 -1.394079
v -1.500169 0.000000 -1.500170
v -1.391948 -0.126269 -1.391948
v -1.286263 -0.000000 -1.286263
v -1.394079 0.000000 -0.000000
v -1.391948 -0.126269 1.391947
v -1.286263 0.000000 1.286263
v 0.000000 0.000000 1.394079
v 1.500170 0.000000 1.500169
v 1.391948 -0.126269 1.391947
v 1.394079 0.000000 0.000000
v -0.582502 0.000000 0.116045
v -0.803233 0.000000 0.187766
v -0.939656 0.000000 -0.000000
v -0.803233 0.000000 -0.187766
v -0.582502 0.000000 -0.116045
v -0.681218 -0.098137 0.187766
v -0.901949 -0.098137 0.116045
v -0.901949 -0.098137 -0.116045
v -0.681218 -0.098137 -0.187766
v -0.544795 -0.098137 -0.000000
v -0.742225 -0.157989 -0.000000
v -0.493947 0.000000 -0.329835
v -0.700742 0.000000 -0.435201
v -0.664437 0.000000 -0.664437
v -0.435201 0.000000 -0.700742
v -0.329835 0.000000 -0.493947
v -0.614464 -0.098137 -0.348923
v -0.719830 -0.098137 -0.555718
v -0.555718 -0.098137 -0.719830
v -0.348923 -0.098137 -0.614464
v -0.385228 -0.098137 -0.385228
v -0.524833 -0.157989 -0.524833
v -0.116045 0.000000 -0.582502
v -0.187766 0.000000 -0.803233
v 0.000000 0.000000 -0.939656
v 0.187766 0.000000 -0.803233
v 0.116045 0.000000 -0.582502
v -0.187766 -0.098137 -0.681218
v -0.116045 -0.098137 -0.901949
v 0.116045 -0.098137 -0.901949
v 0.187766 -0.098137 -0.681218
v 0.000000 -0.098137 -0.544795
v 0.000000 -0.157989 -0.742225
v 0.582502 0.000000 0.116045
v 0.803233 0.000000 0.187766
v 0.939656 0.000000 -0.000000
v 0.803233 0.000000 -0.187766
v 0.582502 0.000000 -0.116045
v 0.681218 -0.098137 0.187766
v 0.901949 -0.098137 0.116045
v 0.901949 -0.098137 -0.116045
v 0.681218 -0.098137 -0.187766
v 0.544795 -0.098137 -0.000000
v 0.742225 -0.157989 -0.000000
v 0.493947 0.000000 -0.329835
v 0.700742 0.000000 -0.435201
v 0.664437 0.000000 -0.664437
v 0.435201 0.000000 -0.700742
v 0.329835 0.000000 -0.493947
v 0.614464 -0.098137 -0.348923
v 0.719830 -0.098137 -0.555718
v 0.555718 -0.098137 -0.719830
v 0.348923 -0.098137 -0.614464
v 0.385228 -0.098137 -0.385228
v 0.524833 -0.157989 -0.524833
v 0.000000 0.000000 0.958188
v -0.822778 -0.000932 0.087563
v -0.635068 -0.000932 -0.057509
v -0.118515 -0.001294 -0.696353
v 0.118515 -0.001294 -0.696353
v -0.401491 -0.001215 -0.547471
v -0.625541 -0.001215 -0.469014
v 0.822778 -0.000932 0.087563
v 0.635068 -0.000932 -0.057509
v 0.401491 -0.001215 -0.547471
v 0.625541 -0.001215 -0.469013
v 1.286263 -0.000000 1.286263
v 1.286263 -0.000000 -1.286263
v -1.500170 0.000000 1.500169
v 1.500169 0.000000 -1.500170
vt 0.312816 0.793118
vt 0.306015 0.833081
vt 0.319617 0.833081
vt 0.044502 0.869331
vt 0.061227 0.834485
vt 0.067020 0.850708
vt 0.215525 0.860668
vt 0.213435 0.873693
vt 0.203652 0.857697
vt 0.197171 0.824448
vt 0.212421 0.848087
vt 0.169744 0.811932
vt 0.147094 0.811639
vt 0.157304 0.801036
vt 0.022158 0.859867
vt 0.044038 0.828682
vt 0.197524 0.875494
vt 0.194654 0.866707
vt 0.141890 0.795983
vt 0.107761 0.795983
vt 0.183856 0.837426
vt 0.191785 0.857919
vt 0.111488 0.817854
vt 0.138089 0.824215
vt 0.088317 0.834300
vt 0.077669 0.842504
vt 0.196030 0.917107
vt 0.180128 0.919973
vt 0.185462 0.914019
vt 0.161036 0.830214
vt 0.149562 0.827214
vt 0.058943 0.817794
vt 0.077317 0.813614
vt 0.201916 0.893851
vt 0.190797 0.908065
vt 0.216438 0.897424
vt 0.206985 0.918502
vt 0.199337 0.926698
vt 0.188858 0.931221
vt 0.289264 0.908773
vt 0.330127 0.908773
vt 0.309695 0.902134
vt 0.276637 0.947636
vt 0.276637 0.926154
vt 0.309695 0.971655
vt 0.289264 0.965016
vt 0.342754 0.947636
vt 0.330127 0.965016
vt 0.342754 0.926154
vt 0.309695 0.936895
vt 0.275737 0.931221
vt 0.304632 0.902327
vt 0.285490 0.912080
vt 0.294288 0.967630
vt 0.279098 0.952440
vt 0.334649 0.961238
vt 0.315507 0.970991
vt 0.341041 0.920878
vt 0.344401 0.942097
vt 0.325850 0.905688
vt 0.310069 0.936659
vt 0.282184 0.956716
vt 0.282184 0.915854
vt 0.275545 0.936285
vt 0.321046 0.969344
vt 0.299564 0.969344
vt 0.345066 0.936285
vt 0.338427 0.956716
vt 0.321046 0.903226
vt 0.338427 0.915854
vt 0.299564 0.903226
vt 0.310305 0.936285
vt 0.289264 0.907361
vt 0.309695 0.900722
vt 0.330127 0.907361
vt 0.276637 0.946224
vt 0.276637 0.924741
vt 0.309695 0.970243
vt 0.289264 0.963604
vt 0.342754 0.946224
vt 0.330127 0.963604
vt 0.342754 0.924741
vt 0.309695 0.935483
vt 0.275737 0.929809
vt 0.285490 0.910668
vt 0.304632 0.900915
vt 0.294288 0.966218
vt 0.279098 0.951028
vt 0.334649 0.959826
vt 0.315507 0.969579
vt 0.341041 0.919466
vt 0.344401 0.940685
vt 0.325850 0.904276
vt 0.310069 0.935247
vn -0.000478 1.000000 0.000619
vn -0.061964 0.670588 -0.739237
vn -0.781022 0.622056 0.055233
vn 0.055233 0.622056 -0.781022
vn -0.000259 1.000000 0.000738
vn -0.000000 1.000000 0.000782
vn 0.000478 1.000000 0.000619
vn 0.000259 1.000000 0.000738
vn -0.055233 0.622056 -0.781022
vn -0.055233 0.622056 0.781022
vn 0.739237 0.670589 0.061964
vn 0.781022 0.622056 0.055233
vn 0.061964 0.670589 0.739237
vn -0.739237 0.670588 0.061964
vn -0.739237 0.670588 -0.061964
vn 0.061964 0.670589 -0.739237
vn -0.061964 0.670589 0.739237
vn 0.781022 0.622056 -0.055233
vn 0.739237 0.670589 -0.061964
vn -0.781022 0.622056 -0.055233
vn 0.055233 0.622057 0.781022
vn -0.000478 -1.000000 0.000619
vn -0.061964 -0.670588 -0.739237
vn -0.781022 -0.622056 0.055233
vn 0.055233 -0.622056 -0.781022
vn -0.000259 -1.000000 0.000738
vn -0.000000 -1.000000 0.000782
vn 0.000478 -1.000000 0.000619
vn 0.000259 -1.000000 0.000738
vn -0.055233 -0.622056 -0.781022
vn -0.055233 -0.622056 0.781022
vn 0.739237 -0.670589 0.061964
vn 0.781022 -0.622056 0.055233
vn 0.061964 -0.670589 0.739237
vn -0.739237 -0.670588 0.061964
vn -0.739237 -0.670588 -0.061964
vn 0.061964 -0.670589 -0.739237
vn -0.061964 -0.670589 0.739237
vn 0.781022 -0.622056 -0.055233
vn 0.739237 -0.670589 -0.061964
vn -0.781022 -0.622056 -0.055233
vn 0.055233 -0.622057 0.781022
vn 0.809015 0.000000 0.587786
vn 0.809015 0.000000 -0.587786
vn 0.878536 0.477645 0.000000
vn -0.309000 0.000000 0.951048
vn 0.271462 0.477645 0.835536
vn -1.000000 0.000000 0.000000
vn -0.710746 0.477645 0.516373
vn -0.309000 0.000000 -0.951048
vn -0.710746 0.477645 -0.516373
vn 0.271462 0.477645 -0.835536
vn 0.000000 1.000000 0.000000
vn 0.156407 0.000000 0.987671
vn 0.987671 0.000000 0.156407
vn 0.621204 0.477645 0.621204
vn -0.890988 0.000000 0.453993
vn -0.398846 0.477645 0.782769
vn -0.707083 0.000000 -0.707083
vn -0.867702 0.477645 -0.137425
vn 0.453993 0.000000 -0.890988
vn -0.137425 0.477645 -0.867702
vn 0.782769 0.477645 -0.398846
vn -0.587786 0.000000 0.809015
vn 0.587786 0.000000 0.809015
vn 0.000000 0.477645 0.878536
vn -0.951048 0.000000 -0.309000
vn -0.835536 0.477645 0.271462
vn 0.000000 0.000000 -1.000000
vn -0.516373 0.477645 -0.710746
vn 0.951048 0.000000 -0.309000
vn 0.516373 0.477645 -0.710746
vn 0.835536 0.477645 0.271462
vn -0.809015 0.000000 0.587786
vn -0.878536 0.477645 0.000000
vn -0.809015 0.000000 -0.587786
vn 0.309000 0.000000 0.951048
vn -0.271462 0.477645 0.835536
vn 1.000000 0.000000 0.000000
vn 0.710746 0.477645 0.516373
vn 0.309000 0.000000 -0.951048
vn 0.710746 0.477645 -0.516373
vn -0.271462 0.477645 -0.835536
vn -0.156407 0.000000 0.987671
vn -0.621204 0.477645 0.621204
vn -0.987671 0.000000 0.156407
vn 0.890988 0.000000 0.453993
vn 0.398846 0.477645 0.782769
vn 0.707083 0.000000 -0.707083
vn 0.867702 0.477645 -0.137425
vn -0.453993 0.000000 -0.890988
vn 0.137425 0.477645 -0.867702
vn -0.782769 0.477645 -0.398846
vn 0.878536 -0.477645 0.000000
vn 0.271462 -0.477645 0.835536
vn -0.710746 -0.477645 0.516373
vn -0.710746 -0.477645 -0.516373
vn 0.271462 -0.477645 -0.835536
vn 0.000000 -1.000000 0.000000
vn 0.621204 -0.477645 0.621204
vn -0.398846 -0.477645 0.782769
vn -0.867702 -0.477645 -0.137425
vn -0.137425 -0.477645 -0.867702
vn 0.782769 -0.477645 -0.398846
vn 0.000000 -0.477645 0.878536
vn -0.835536 -0.477645 0.271462
vn -0.516373 -0.477645 -0.710746
vn 0.516373 -0.477645 -0.710746
vn 0.835536 -0.477645 0.271462
vn -0.878536 -0.477645 0.000000
vn -0.271462 -0.477645 0.835536
vn 0.710746 -0.477645 0.516373
vn 0.710746 -0.477645 -0.516373
vn -0.271462 -0.477645 -0.835536
vn -0.621204 -0.477645 0.621204
vn 0.398846 -0.477645 0.782769
vn 0.867702 -0.477645 -0.137425
vn 0.137425 -0.477645 -0.867702
vn -0.782769 -0.477645 -0.398846
usemtl PowerUpMaterial_PowerUpTex
s off
f 112/1/1 41/2/1 42/3/1
f 53/4/2 4/5/2 123/6/2
f 47/7/3 50/8/3 2/9/3
f 46/10/4 47/11/4 2/9/4
f 112/1/5 44/2/5 43/3/5
f 112/1/6 38/3/6 37/2/6
f 112/1/7 36/3/7 35/2/7
f 112/1/8 39/3/8 40/2/8
f 46/12/9 1/13/9 126/14/9
f 53/15/10 54/16/10 4/5/10
f 2/9/11 50/17/11 49/18/11
f 126/19/12 1/13/12 56/20/12
f 46/21/13 2/9/13 49/22/13
f 56/23/14 1/13/14 124/24/14
f 4/5/15 56/25/15 123/26/15
f 3/27/16 53/28/16 52/29/16
f 1/13/17 46/30/17 124/31/17
f 54/32/18 56/33/18 4/5/18
f 50/34/19 3/27/19 52/35/19
f 50/36/20 125/37/20 3/27/20
f 125/38/21 53/39/21 3/27/21
f 112/1/22 120/3/22 119/2/22
f 53/4/23 123/6/23 55/5/23
f 47/7/24 48/9/24 50/8/24
f 46/10/25 48/9/25 47/11/25
f 112/1/26 121/3/26 122/2/26
f 112/1/27 115/2/27 116/3/27
f 112/1/28 113/2/28 114/3/28
f 112/1/29 118/2/29 117/3/29
f 126/14/30 45/13/30 46/12/30
f 53/15/31 55/5/31 54/16/31
f 48/9/32 49/18/32 50/17/32
f 56/20/33 45/13/33 126/19/33
f 46/21/34 49/22/34 48/9/34
f 56/23/35 124/24/35 45/13/35
f 55/5/36 123/26/36 56/25/36
f 51/27/37 52/29/37 53/28/37
f 45/13/38 124/31/38 46/30/38
f 54/32/39 55/5/39 56/33/39
f 50/34/40 52/35/40 51/27/40
f 50/36/41 51/27/41 125/37/41
f 125/38/42 51/27/42 53/39/42
s 1
f 57/40/43 61/41/44 9/42/45
f 58/43/46 57/40/43 5/44/47
f 59/45/48 58/43/46 6/46/49
f 60/47/50 59/45/48 7/48/51
f 61/41/44 60/47/50 8/49/52
f 57/40/43 9/42/45 5/44/47
f 58/43/46 5/44/47 6/46/49
f 59/45/48 6/46/49 7/48/51
f 60/47/50 7/48/51 8/49/52
f 61/41/44 8/49/52 9/42/45
f 5/44/47 9/42/45 10/50/53
f 6/46/49 5/44/47 10/50/53
f 7/48/51 6/46/49 10/50/53
f 8/49/52 7/48/51 10/50/53
f 9/42/45 8/49/52 10/50/53
f 68/51/54 72/52/55 15/53/56
f 69/54/57 68/51/54 11/55/58
f 70/56/59 69/54/57 12/57/60
f 71/58/61 70/56/59 13/59/62
f 72/52/55 71/58/61 14/60/63
f 68/51/54 15/53/56 11/55/58
f 69/54/57 11/55/58 12/57/60
f 70/56/59 12/57/60 13/59/62
f 71/58/61 13/59/62 14/60/63
f 72/52/55 14/60/63 15/53/56
f 11/55/58 15/53/56 16/61/53
f 12/57/60 11/55/58 16/61/53
f 13/59/62 12/57/60 16/61/53
f 14/60/63 13/59/62 16/61/53
f 15/53/56 14/60/63 16/61/53
f 79/62/64 83/63/65 21/64/66
f 80/65/67 79/62/64 17/66/68
f 81/67/69 80/65/67 18/68/70
f 82/69/71 81/67/69 19/70/72
f 83/63/65 82/69/71 20/71/73
f 79/62/64 21/64/66 17/66/68
f 80/65/67 17/66/68 18/68/70
f 81/67/69 18/68/70 19/70/72
f 82/69/71 19/70/72 20/71/73
f 83/63/65 20/71/73 21/64/66
f 17/66/68 21/64/66 22/72/53
f 18/68/70 17/66/68 22/72/53
f 19/70/72 18/68/70 22/72/53
f 20/71/73 19/70/72 22/72/53
f 21/64/66 20/71/73 22/72/53
f 90/73/74 27/74/75 94/75/76
f 91/76/77 23/77/78 90/73/74
f 92/78/79 24/79/80 91/76/77
f 93/80/81 25/81/82 92/78/79
f 94/75/76 26/82/83 93/80/81
f 90/73/74 23/77/78 27/74/75
f 91/76/77 24/79/80 23/77/78
f 92/78/79 25/81/82 24/79/80
f 93/80/81 26/82/83 25/81/82
f 94/75/76 27/74/75 26/82/83
f 23/77/78 28/83/53 27/74/75
f 24/79/80 28/83/53 23/77/78
f 25/81/82 28/83/53 24/79/80
f 26/82/83 28/83/53 25/81/82
f 27/74/75 28/83/53 26/82/83
f 101/84/84 33/85/85 105/86/86
f 102/87/87 29/88/88 101/84/84
f 103/89/89 30/90/90 102/87/87
f 104/91/91 31/92/92 103/89/89
f 105/86/86 32/93/93 104/91/91
f 101/84/84 29/88/88 33/85/85
f 102/87/87 30/90/90 29/88/88
f 103/89/89 31/92/92 30/90/90
f 104/91/91 32/93/93 31/92/92
f 105/86/86 33/85/85 32/93/93
f 29/88/88 34/94/53 33/85/85
f 30/90/90 34/94/53 29/88/88
f 31/92/92 34/94/53 30/90/90
f 32/93/93 34/94/53 31/92/92
f 33/85/85 34/94/53 32/93/93
f 57/40/43 66/42/94 61/41/44
f 58/43/46 62/44/95 57/40/43
f 59/45/48 63/46/96 58/43/46
f 60/47/50 64/48/97 59/45/48
f 61/41/44 65/49/98 60/47/50
f 57/40/43 62/44/95 66/42/94
f 58/43/46 63/46/96 62/44/95
f 59/45/48 64/48/97 63/46/96
f 60/47/50 65/49/98 64/48/97
f 61/41/44 66/42/94 65/49/98
f 62/44/95 67/50/99 66/42/94
f 63/46/96 67/50/99 62/44/95
f 64/48/97 67/50/99 63/46/96
f 65/49/98 67/50/99 64/48/97
f 66/42/94 67/50/99 65/49/98
f 68/51/54 77/53/100 72/52/55
f 69/54/57 73/55/101 68/51/54
f 70/56/59 74/57/102 69/54/57
f 71/58/61 75/59/103 70/56/59
f 72/52/55 76/60/104 71/58/61
f 68/51/54 73/55/101 77/53/100
f 69/54/57 74/57/102 73/55/101
f 70/56/59 75/59/103 74/57/102
f 71/58/61 76/60/104 75/59/103
f 72/52/55 77/53/100 76/60/104
f 73/55/101 78/61/99 77/53/100
f 74/57/102 78/61/99 73/55/101
f 75/59/103 78/61/99 74/57/102
f 76/60/104 78/61/99 75/59/103
f 77/53/100 78/61/99 76/60/104
f 79/62/64 88/64/105 83/63/65
f 80/65/67 84/66/106 79/62/64
f 81/67/69 85/68/107 80/65/67
f 82/69/71 86/70/108 81/67/69
f 83/63/65 87/71/109 82/69/71
f 79/62/64 84/66/106 88/64/105
f 80/65/67 85/68/107 84/66/106
f 81/67/69 86/70/108 85/68/107
f 82/69/71 87/71/109 86/70/108
f 83/63/65 88/64/105 87/71/109
f 84/66/106 89/72/99 88/64/105
f 85/68/107 89/72/99 84/66/106
f 86/70/108 89/72/99 85/68/107
f 87/71/109 89/72/99 86/70/108
f 88/64/105 89/72/99 87/71/109
f 90/73/74 94/75/76 99/74/110
f 91/76/77 90/73/74 95/77/111
f 92/78/79 91/76/77 96/79/112
f 93/80/81 92/78/79 97/81/113
f 94/75/76 93/80/81 98/82/114
f 90/73/74 99/74/110 95/77/111
f 91/76/77 95/77/111 96/79/112
f 92/78/79 96/79/112 97/81/113
f 93/80/81 97/81/113 98/82/114
f 94/75/76 98/82/114 99/74/110
f 95/77/111 99/74/110 100/83/99
f 96/79/112 95/77/111 100/83/99
f 97/81/113 96/79/112 100/83/99
f 98/82/114 97/81/113 100/83/99
f 99/74/110 98/82/114 100/83/99
f 101/84/84 105/86/86 110/85/115
f 102/87/87 101/84/84 106/88/116
f 103/89/89 102/87/87 107/90/117
f 104/91/91 103/89/89 108/92/118
f 105/86/86 104/91/91 109/93/119
f 101/84/84 110/85/115 106/88/116
f 102/87/87 106/88/116 107/90/117
f 103/89/89 107/90/117 108/92/118
f 104/91/91 108/92/118 109/93/119
f 105/86/86 109/93/119 110/85/115
f 106/88/116 110/85/115 111/94/99
f 107/90/117 106/88/116 111/94/99
f 108/92/118 107/90/117 111/94/99
f 109/93/119 108/92/118 111/94/99
f 110/85/115 109/93/119 111/94/99
